<?xml version="1.0" standalone="no"?>
<!DOCTYPE svg PUBLIC "-//W3C//DTD SVG 20010904//EN"
 "http://www.w3.org/TR/2001/REC-SVG-20010904/DTD/svg10.dtd">
<svg version="1.0" xmlns="http://www.w3.org/2000/svg"
 width="700.000000pt" height="700.000000pt" viewBox="0 0 700.000000 700.000000"
 preserveAspectRatio="xMidYMid meet">
<metadata>
Created by potrace 1.14, written by Peter Selinger 2001-2017
</metadata>
<g transform="translate(0.000000,700.000000) scale(0.100000,-0.100000)"
fill="#000000" stroke="none">
<path d="M3378 6195 c-2 -1 -43 -5 -93 -9 -346 -24 -691 -124 -1020 -295 -119
-62 -328 -192 -362 -227 -8 -8 -18 -14 -21 -14 -4 0 -18 -10 -32 -22 -14 -13
-48 -41 -75 -62 -81 -64 -285 -273 -367 -376 -275 -345 -458 -733 -544 -1155
-16 -78 -34 -202 -40 -274 -3 -36 -7 -67 -9 -69 -1 -1 -185 -3 -409 -3 l-406
0 0 -190 0 -189 410 0 410 0 1 -32 c1 -54 9 -117 30 -238 129 -736 545 -1371
1176 -1792 124 -83 310 -182 455 -242 91 -38 284 -103 326 -111 15 -2 43 -9
62 -15 42 -13 170 -38 225 -45 22 -3 51 -7 65 -10 93 -19 419 -25 585 -12 479
38 955 220 1362 518 547 402 941 1029 1052 1674 6 33 13 74 15 90 6 32 15 106
20 168 2 21 6 40 8 43 3 2 183 4 401 4 l397 1 0 189 0 189 -397 1 c-218 0
-398 2 -401 4 -2 3 -6 24 -8 48 -3 40 -8 80 -20 168 -24 173 -101 447 -172
615 -230 545 -611 987 -1112 1290 -91 56 -296 158 -370 185 -19 7 -48 18 -65
25 -126 55 -423 129 -605 150 -30 4 -71 9 -90 11 -39 6 -377 14 -382 9z m409
-388 c11 -3 43 -9 70 -12 26 -4 80 -14 118 -22 39 -8 79 -16 91 -19 36 -7 206
-61 274 -87 160 -61 382 -181 525 -284 136 -98 284 -237 430 -403 123 -141
289 -418 367 -614 53 -134 122 -379 134 -476 2 -19 6 -46 9 -60 3 -14 7 -51
11 -82 l5 -58 -55 0 c-31 0 -274 0 -541 0 -267 0 -505 0 -530 0 l-45 0 0 680
0 680 -188 0 -187 0 0 -595 c0 -327 -3 -595 -6 -595 -5 0 -1288 809 -1524 961
-33 22 -134 86 -225 144 l-165 104 -3 -690 -2 -689 -38 0 c-67 -1 -1086 -1
-1105 0 -10 0 -16 3 -14 8 3 4 8 38 11 77 10 105 51 296 92 424 115 364 308
679 579 947 370 365 842 595 1355 659 100 12 505 14 557 2z m-582 -1722 c253
-160 489 -309 525 -332 36 -23 138 -87 227 -144 89 -57 160 -106 157 -111 -3
-4 -42 -31 -87 -58 -45 -28 -136 -86 -203 -128 -67 -42 -128 -81 -137 -87 -10
-5 -119 -75 -244 -155 -126 -79 -329 -209 -453 -287 -124 -78 -231 -147 -238
-153 -7 -7 -16 -9 -20 -5 -12 11 -8 1764 3 1757 5 -3 217 -137 470 -297z
m-855 -1460 c0 -377 3 -685 6 -685 3 0 92 55 198 122 105 67 301 191 436 276
135 85 274 173 310 197 36 23 207 131 380 240 173 109 358 226 410 260 52 34
115 73 140 88 l45 26 0 -599 0 -600 187 0 188 0 0 680 0 680 585 0 585 0 -5
-57 c-6 -57 -21 -159 -29 -198 -80 -383 -232 -709 -468 -1004 -212 -264 -484
-484 -779 -628 -252 -123 -436 -180 -719 -222 -174 -26 -513 -22 -684 8 -267
48 -474 116 -694 232 -524 273 -928 735 -1122 1284 -28 78 -75 244 -84 295 -2
14 -7 43 -11 65 -4 22 -9 49 -11 60 -3 18 -16 132 -16 145 0 3 0 8 1 13 0 4
260 7 576 7 l575 0 0 -685z"/>
</g>
</svg>
